<svg width="24" height="24" viewBox="0 0 24 24" fill="none" xmlns="http://www.w3.org/2000/svg">
<path fill-rule="evenodd" clip-rule="evenodd" d="M20.5611 20.2601V5.88705C21.5826 5.88705 22.2982 5.39826 22.2982 4.35853C22.2844 3.65806 21.6854 3.0827 20.985 3.097H3.0125C2.13398 3.07883 1.69824 3.83404 1.69824 4.62552C1.7188 5.63998 2.61346 5.88705 3.43435 5.88705V20.2771C3.43435 21.0342 4.22372 21.5326 4.90724 21.207L12.0999 17.7815L19.0796 21.1859C19.7638 21.5196 20.5611 21.0214 20.5611 20.2601ZM13.5215 9.57807L12.5099 7.8096C12.3122 7.46392 11.8138 7.46385 11.616 7.80946L10.6036 9.57807L8.58448 9.95069C8.17988 10.0253 8.02187 10.5209 8.30854 10.816L9.70287 12.2513L9.44626 14.2248C9.39424 14.6249 9.80165 14.9268 10.1693 14.7604L12.0637 13.9033L13.9561 14.7602C14.3237 14.9267 14.7311 14.625 14.6793 14.2249L14.4236 12.2513L15.8179 10.816C16.1045 10.5209 15.9465 10.0254 15.5419 9.95075L13.5215 9.57807Z" fill="white" fill-opacity="0.9"/>
</svg>
